<svg width="132" height="32" viewBox="0 0 132 32" fill="none" xmlns="http://www.w3.org/2000/svg">
<path fill-rule="evenodd" clip-rule="evenodd" d="M26.9344 3.7245C27.8845 3.97907 28.6266 4.72115 28.8811 5.67121L32.4974 19.1672C32.7596 20.1458 32.4631 21.1894 31.7255 21.884L23.8747 29.2767L28.3938 7.96954H22.3935L19.6032 21.1239C19.3934 22.075 19.0368 22.9072 18.5332 23.6205C18.0437 24.3199 17.4283 24.8653 16.687 25.257C15.9597 25.6486 15.1415 25.8444 14.2324 25.8444C13.0016 25.8444 12.0714 25.5507 11.442 24.9632C10.8127 24.3618 10.498 23.4877 10.498 22.3408C10.498 22.103 10.5119 21.8163 10.5399 21.4806C10.5819 21.1309 10.6308 20.8162 10.6868 20.5365L13.3722 7.96954H7.37195L4.51869 21.5225C4.42078 21.9701 4.34386 22.4666 4.28791 23.0121C4.24595 23.5576 4.22497 24.0611 4.22497 24.5227C4.22497 25.7954 4.5047 26.9214 5.06417 27.9004C5.26722 28.2421 5.50008 28.5584 5.76275 28.8493L5.74261 28.8446C4.75347 28.6138 3.97175 27.8572 3.70887 26.8761L0.093871 13.3847C-0.160697 12.4347 0.110923 11.421 0.806415 10.7255L10.7255 0.806417C11.421 0.110925 12.4347 -0.160697 13.3847 0.0938707L26.9344 3.7245ZM13.6701 30.6941L18.9587 31.928C19.2509 31.9962 19.5523 32.0161 19.851 31.987L20.1924 31.9538C20.7992 31.8947 21.3692 31.6359 21.813 31.218L22.5512 30.5229H17.8409L18.5752 27.0612H18.4493C18.0437 27.8025 17.4773 28.4739 16.75 29.0753C16.0366 29.6767 15.2044 30.1523 14.2534 30.5019C14.0621 30.5733 13.8677 30.6373 13.6701 30.6941Z" fill="#1F1F1F"/>
<path d="M49.0825 19.8269L50.6224 11.2717H54.4152L51.7346 26.5H48.2555L48.6547 24.2756C47.3714 25.9582 45.917 26.7852 44.2345 26.7852C41.1261 26.7852 39.3866 24.3042 40.0425 20.6539L41.668 11.2717H45.4608L43.9779 19.7984C43.5786 22.0513 44.4056 23.3346 45.9741 23.3346C47.6851 23.3346 48.6832 21.9657 49.0825 19.8269ZM71.4795 17.2033C71.4795 22.6216 68.1144 26.7852 63.7798 26.7852C61.7551 26.7852 60.1866 25.7585 59.5878 24.0475L58.1619 32.0038H54.3691L58.0193 11.2717H61.4984L61.0992 13.6102C62.2114 12.0132 64.0365 10.9866 66.0042 10.9866C69.2266 10.9866 71.4795 13.5246 71.4795 17.2033ZM67.5156 17.6311C67.5156 15.6634 66.3464 14.4086 64.6638 14.4086C62.1258 14.4086 60.3577 16.9752 60.3577 20.1406C60.3577 22.0798 61.5269 23.3631 63.238 23.3631C65.719 23.3631 67.5156 20.9391 67.5156 17.6311ZM82.1053 22.7357L81.535 26.2148C80.6509 26.6141 79.6528 26.7852 78.6832 26.7852C75.4893 26.7852 73.8923 24.5038 74.5482 20.9391L75.6604 14.5798H72.6946L73.2935 11.2717H76.2593L77.0292 6.766H80.822L80.0521 11.2717H84.2726L83.6738 14.5798H79.4532L78.341 20.9391C78.0844 22.4505 78.6547 23.2205 80.0235 23.2205C80.7365 23.2205 81.5635 23.0494 82.1053 22.7357ZM90.8985 26.7852C87.1627 26.7852 84.1684 24.3327 84.1684 20.1977C84.1684 14.8934 87.7045 10.9866 92.3814 10.9866C97.0582 10.9866 99.254 14.8934 98.427 19.8555H88.1323V19.9695C88.1323 22.2509 89.2445 23.5342 91.2121 23.5342C92.6665 23.5342 93.6361 22.7927 94.2065 21.3098H98.0848C96.8586 25.1312 94.2065 26.7852 90.8985 26.7852ZM92.3528 13.9809C90.3281 13.9809 89.0448 15.4353 88.4745 17.403H94.9479C95.062 15.4638 94.1494 13.9809 92.3528 13.9809ZM106.209 26.7852C102.53 26.7852 99.7638 24.0475 99.7638 20.2547C99.7638 14.9505 103.271 10.9866 108.034 10.9866C111.798 10.9866 114.279 13.6102 114.308 17.7167H110.372C110.344 15.6349 109.346 14.4086 107.749 14.4086C105.382 14.4086 103.728 16.7756 103.728 19.998C103.728 22.0513 104.84 23.3916 106.579 23.3916C108.176 23.3916 109.488 22.308 110.173 20.0266H113.994C113.167 24.1045 110.201 26.7852 106.209 26.7852ZM120.657 18.1729L119.174 26.5H115.381L118.974 6.02455H122.453L121.17 13.4676C122.339 11.8991 123.936 10.9866 125.761 10.9866C128.898 10.9866 130.638 13.4961 130.01 17.1178L128.356 26.5H124.564L126.075 17.9733C126.446 15.7204 125.733 14.4086 124.022 14.4086C122.197 14.4086 121.056 15.863 120.657 18.1729Z" fill="#1F1F1F"/>
</svg>
