<svg width="116" height="29" viewBox="0 0 116 29" fill="none" xmlns="http://www.w3.org/2000/svg">
<path fill-rule="evenodd" clip-rule="evenodd" d="M23.5676 3.25894C24.3989 3.48168 25.0482 4.131 25.271 4.96231L28.4352 16.7713C28.6646 17.6276 28.4052 18.5408 27.7598 19.1485L20.8903 25.6171L24.8446 6.97313H19.5944L17.1528 18.4832C16.9692 19.3154 16.6572 20.0436 16.2166 20.6677C15.7883 21.2797 15.2498 21.757 14.6011 22.0996C13.9648 22.4423 13.2488 22.6136 12.4533 22.6136C11.3764 22.6136 10.5625 22.3566 10.0118 21.8426C9.46107 21.3164 9.18571 20.5515 9.18571 19.5479C9.18571 19.3399 9.19795 19.089 9.22243 18.7953C9.25914 18.4893 9.30197 18.214 9.35093 17.9692L11.7007 6.97313H6.45046L3.95385 18.832C3.86819 19.2236 3.80088 19.6581 3.75192 20.1354C3.71521 20.6127 3.69685 21.0533 3.69685 21.4571C3.69685 22.5708 3.94162 23.556 4.43115 24.4127C4.60888 24.7118 4.81272 24.9886 5.04266 25.2432L5.02479 25.239C4.15929 25.0371 3.47528 24.375 3.24526 23.5166L0.082137 11.7116C-0.14061 10.8803 0.0970586 9.99335 0.705614 9.38479L9.38479 0.705613C9.99335 0.0970575 10.8803 -0.140609 11.7116 0.0821372L23.5676 3.25894ZM11.9609 26.8573L16.5889 27.937C16.8446 27.9967 17.1083 28.0141 17.3696 27.9887L17.6684 27.9596C18.1993 27.9079 18.6981 27.6814 19.0864 27.3158L19.7325 26.7073H15.6108L16.2533 23.6784H16.1432C15.7883 24.327 15.2926 24.9144 14.6562 25.4407C14.0321 25.9669 13.3039 26.383 12.4717 26.689C12.3042 26.7514 12.134 26.8075 11.9609 26.8573Z" fill="white"/>
<path d="M42.9471 17.6611L44.2945 10.1753H47.6132L45.2677 23.5H42.2235L42.5728 21.5537C41.4499 23.0259 40.1773 23.7495 38.7051 23.7495C35.9853 23.7495 34.4632 21.5786 35.0371 18.3847L36.4594 10.1753H39.7781L38.4806 17.6361C38.1312 19.6074 38.8549 20.7303 40.2273 20.7303C41.7244 20.7303 42.5978 19.5325 42.9471 17.6611ZM62.5445 15.3654C62.5445 20.1064 59.6001 23.7495 55.8073 23.7495C54.0356 23.7495 52.6632 22.8512 52.1392 21.3541L50.8916 28.3159H47.5729L50.7668 10.1753H53.8111L53.4617 12.2214C54.4349 10.824 56.0318 9.92575 57.7536 9.92575C60.5732 9.92575 62.5445 12.1465 62.5445 15.3654ZM59.0761 15.7397C59.0761 14.018 58.053 12.9201 56.5808 12.9201C54.36 12.9201 52.8129 15.1658 52.8129 17.9356C52.8129 19.6323 53.836 20.7552 55.3332 20.7552C57.5041 20.7552 59.0761 18.6342 59.0761 15.7397ZM71.8421 20.2062L71.343 23.2505C70.5695 23.5998 69.6962 23.7495 68.8478 23.7495C66.0531 23.7495 64.6557 21.7533 65.2296 18.6342L66.2028 13.0698H63.6077L64.1317 10.1753H66.7268L67.4005 6.23275H70.7192L70.0455 10.1753H73.7385L73.2145 13.0698H69.5215L68.5483 18.6342C68.3238 19.9567 68.8228 20.6304 70.0205 20.6304C70.6444 20.6304 71.368 20.4807 71.8421 20.2062ZM79.5361 23.7495C76.2673 23.7495 73.6473 21.6036 73.6473 17.9855C73.6473 13.3443 76.7414 9.92575 80.8336 9.92575C84.9259 9.92575 86.8472 13.3443 86.1236 17.686H77.1157V17.7858C77.1157 19.7821 78.0888 20.9049 79.8106 20.9049C81.0832 20.9049 81.9315 20.2562 82.4306 18.9586H85.8242C84.7512 22.3023 82.4306 23.7495 79.5361 23.7495ZM80.8087 12.5458C79.037 12.5458 77.9142 13.8184 77.4151 15.5401H83.0794C83.1792 13.8433 82.3807 12.5458 80.8087 12.5458ZM92.9326 23.7495C89.7137 23.7495 87.2933 21.3541 87.2933 18.0354C87.2933 13.3942 90.3624 9.92575 94.5295 9.92575C97.8233 9.92575 99.9942 12.2214 100.019 15.8146H96.5756C96.5507 13.993 95.6773 12.9201 94.28 12.9201C92.2089 12.9201 90.7617 14.9911 90.7617 17.8108C90.7617 19.6074 91.7348 20.7802 93.2569 20.7802C94.6543 20.7802 95.8021 19.832 96.401 17.8357H99.7446C99.021 21.404 96.4259 23.7495 92.9326 23.7495ZM105.575 16.2138L104.277 23.5H100.958L104.102 5.58398H107.147L106.024 12.0966C107.047 10.7242 108.444 9.92575 110.041 9.92575C112.786 9.92575 114.308 12.1216 113.759 15.2906L112.312 23.5H108.993L110.316 16.0392C110.64 14.0679 110.016 12.9201 108.519 12.9201C106.922 12.9201 105.924 14.1927 105.575 16.2138Z" fill="white"/>
</svg>
